<svg xmlns="http://www.w3.org/2000/svg" width="2840" height="308" viewBox="0 0 2840 308">
  <defs><marker id="arrow" viewBox="0 0 10 10" refX="10" refY="5" markerWidth="6" markerHeight="6" orient="auto-start-reverse"><path d="M0 0 L10 5 L0 10 z" fill="#333"/></marker></defs>
  <polyline fill="none" stroke="#333" stroke-width="2" marker-end="url(#arrow)" points="2500.0,94.0 2545.0,94.0 2590.0,94.0"/>
  <polyline fill="none" stroke="#333" stroke-width="2" marker-end="url(#arrow)" points="2750.0,94.0 1420.0,94.0 90.0,94.0"/>
  <polyline fill="none" stroke="#333" stroke-width="2" marker-end="url(#arrow)" points="250.0,94.0 295.0,94.0 340.0,94.0"/>
  <polyline fill="none" stroke="#333" stroke-width="2" marker-end="url(#arrow)" points="500.0,94.0 545.0,94.0 590.0,94.0"/>
  <polyline fill="none" stroke="#333" stroke-width="2" marker-end="url(#arrow)" points="750.0,94.0 795.0,94.0 840.0,94.0"/>
  <polyline fill="none" stroke="#333" stroke-width="2" marker-end="url(#arrow)" points="1000.0,94.0 1045.0,94.0 1090.0,94.0"/>
  <polyline fill="none" stroke="#333" stroke-width="2" marker-end="url(#arrow)" points="1250.0,94.0 1295.0,94.0 1340.0,94.0"/>
  <polyline fill="none" stroke="#333" stroke-width="2" marker-end="url(#arrow)" points="1500.0,94.0 1545.0,94.0 1590.0,94.0"/>
  <polyline fill="none" stroke="#333" stroke-width="2" marker-end="url(#arrow)" points="1750.0,94.0 1795.0,94.0 1840.0,94.0"/>
  <polyline fill="none" stroke="#333" stroke-width="2" marker-end="url(#arrow)" points="2000.0,94.0 2045.0,94.0 2090.0,94.0"/>
  <polyline fill="none" stroke="#333" stroke-width="2" marker-end="url(#arrow)" points="2250.0,94.0 2295.0,94.0 2340.0,94.0"/>
  <rect x="2340.0" y="70.0" rx="6" ry="6" width="160.0" height="48.0" fill="#ffffff" stroke="#333333"/>
  <text x="2420.0" y="94.0" font-family="sans-serif" font-size="12" text-anchor="middle" dominant-baseline="middle">Monitor</text>
  <rect x="2590.0" y="70.0" rx="6" ry="6" width="160.0" height="48.0" fill="#ffffff" stroke="#333333"/>
  <text x="2670.0" y="94.0" font-family="sans-serif" font-size="12" text-anchor="middle" dominant-baseline="middle">Alert</text>
  <rect x="90.0" y="70.0" rx="6" ry="6" width="160.0" height="48.0" fill="#ffffff" stroke="#333333"/>
  <text x="170.0" y="94.0" font-family="sans-serif" font-size="12" text-anchor="middle" dominant-baseline="middle">Classify</text>
  <rect x="340.0" y="70.0" rx="6" ry="6" width="160.0" height="48.0" fill="#ffffff" stroke="#333333"/>
  <text x="420.0" y="94.0" font-family="sans-serif" font-size="12" text-anchor="middle" dominant-baseline="middle">Triage</text>
  <rect x="590.0" y="70.0" rx="6" ry="6" width="160.0" height="48.0" fill="#ffffff" stroke="#333333"/>
  <text x="670.0" y="94.0" font-family="sans-serif" font-size="12" text-anchor="middle" dominant-baseline="middle">Assign</text>
  <rect x="840.0" y="70.0" rx="6" ry="6" width="160.0" height="48.0" fill="#ffffff" stroke="#333333"/>
  <text x="920.0" y="94.0" font-family="sans-serif" font-size="12" text-anchor="middle" dominant-baseline="middle">Fix</text>
  <rect x="1090.0" y="70.0" rx="6" ry="6" width="160.0" height="48.0" fill="#ffffff" stroke="#333333"/>
  <text x="1170.0" y="94.0" font-family="sans-serif" font-size="12" text-anchor="middle" dominant-baseline="middle">Review</text>
  <rect x="1340.0" y="70.0" rx="6" ry="6" width="160.0" height="48.0" fill="#ffffff" stroke="#333333"/>
  <text x="1420.0" y="94.0" font-family="sans-serif" font-size="12" text-anchor="middle" dominant-baseline="middle">Verify</text>
  <rect x="1590.0" y="70.0" rx="6" ry="6" width="160.0" height="48.0" fill="#ffffff" stroke="#333333"/>
  <text x="1670.0" y="94.0" font-family="sans-serif" font-size="12" text-anchor="middle" dominant-baseline="middle">Release</text>
  <rect x="1840.0" y="70.0" rx="6" ry="6" width="160.0" height="48.0" fill="#ffffff" stroke="#333333"/>
  <text x="1920.0" y="94.0" font-family="sans-serif" font-size="12" text-anchor="middle" dominant-baseline="middle">Postmortem</text>
  <rect x="2090.0" y="70.0" rx="6" ry="6" width="160.0" height="48.0" fill="#ffffff" stroke="#333333"/>
  <text x="2170.0" y="94.0" font-family="sans-serif" font-size="12" text-anchor="middle" dominant-baseline="middle">Backlog</text>
  <g id="legend">
    <rect x="20.0" y="198.0" width="520" height="100" fill="#fafafa" stroke="#bbb"/>
  <rect x="30.0" y="218.0" rx="15.0" ry="15.0" width="80.0" height="30.0" fill="#e6ffe6" stroke="#2e7d32"/>
    <text x="120.0" y="233.0" font-family="sans-serif" font-size="12">Start/End</text>
  <polygon points="270.0,218.0 310.0,233.0 270.0,248.0 230.0,233.0" fill="#fff9c4" stroke="#f9a825"/>
    <text x="320.0" y="233.0" font-family="sans-serif" font-size="12">Decision</text>
  <rect x="430.0" y="218.0" rx="6" ry="6" width="80.0" height="30.0" fill="#ffffff" stroke="#333333"/>
    <text x="520.0" y="233.0" font-family="sans-serif" font-size="12">Process</text>
  <rect x="30.0" y="258.0" width="80.0" height="30.0" fill="#e3f2fd" stroke="#1565c0"/>
  <ellipse cx="70.0" cy="258.0" rx="40.0" ry="6" fill="#e3f2fd" stroke="#1565c0"/>
  <ellipse cx="70.0" cy="288.0" rx="40.0" ry="6" fill="#e3f2fd" stroke="#1565c0"/>
    <text x="120.0" y="273.0" font-family="sans-serif" font-size="12">Data/Queue</text>
  <rect x="230.0" y="258.0" rx="6" ry="6" width="80.0" height="30.0" fill="#ffebee" stroke="#c62828"/>
    <text x="320.0" y="273.0" font-family="sans-serif" font-size="12">Error</text>
  </g>
</svg>
