<svg xmlns="http://www.w3.org/2000/svg" width="2590" height="308" viewBox="0 0 2590 308">
  <defs><marker id="arrow" viewBox="0 0 10 10" refX="10" refY="5" markerWidth="6" markerHeight="6" orient="auto-start-reverse"><path d="M0 0 L10 5 L0 10 z" fill="#333"/></marker></defs>
  <polyline fill="none" stroke="#333" stroke-width="2" marker-end="url(#arrow)" points="250.0,1038.0 250.0,1097.0 90.0,1156.0"/>
  <polyline fill="none" stroke="#333" stroke-width="2" marker-end="url(#arrow)" points="250.0,1156.0 250.0,625.0 90.0,94.0"/>
  <polyline fill="none" stroke="#333" stroke-width="2" marker-end="url(#arrow)" points="250.0,94.0 250.0,153.0 90.0,212.0"/>
  <polyline fill="none" stroke="#333" stroke-width="2" marker-end="url(#arrow)" points="250.0,212.0 250.0,271.0 90.0,330.0"/>
  <polyline fill="none" stroke="#333" stroke-width="2" marker-end="url(#arrow)" points="250.0,330.0 250.0,389.0 90.0,448.0"/>
  <polyline fill="none" stroke="#333" stroke-width="2" marker-end="url(#arrow)" points="250.0,448.0 250.0,507.0 90.0,566.0"/>
  <polyline fill="none" stroke="#333" stroke-width="2" marker-end="url(#arrow)" points="250.0,566.0 250.0,625.0 90.0,684.0"/>
  <polyline fill="none" stroke="#333" stroke-width="2" marker-end="url(#arrow)" points="250.0,684.0 250.0,743.0 90.0,802.0"/>
  <polyline fill="none" stroke="#333" stroke-width="2" marker-end="url(#arrow)" points="250.0,802.0 250.0,861.0 90.0,920.0"/>
  <polyline fill="none" stroke="#333" stroke-width="2" marker-end="url(#arrow)" points="250.0,920.0 250.0,979.0 90.0,1038.0"/>
  <rect x="90.0" y="1014.0" rx="6" ry="6" width="160.0" height="48.0" fill="#ffffff" stroke="#333333"/>
  <text x="170.0" y="1038.0" font-family="sans-serif" font-size="12" text-anchor="middle" dominant-baseline="middle">Observe</text>
  <rect x="90.0" y="1132.0" width="160.0" height="48.0" fill="#e3f2fd" stroke="#1565c0"/>
  <ellipse cx="170.0" cy="1132.0" rx="80.0" ry="6" fill="#e3f2fd" stroke="#1565c0"/>
  <ellipse cx="170.0" cy="1180.0" rx="80.0" ry="6" fill="#e3f2fd" stroke="#1565c0"/>
  <text x="170.0" y="1156.0" font-family="sans-serif" font-size="12" text-anchor="middle" dominant-baseline="middle">Collect Data</text>
  <rect x="90.0" y="70.0" rx="6" ry="6" width="160.0" height="48.0" fill="#ffffff" stroke="#333333"/>
  <text x="170.0" y="94.0" font-family="sans-serif" font-size="12" text-anchor="middle" dominant-baseline="middle">Orient</text>
  <rect x="90.0" y="188.0" rx="6" ry="6" width="160.0" height="48.0" fill="#ffffff" stroke="#333333"/>
  <text x="170.0" y="212.0" font-family="sans-serif" font-size="12" text-anchor="middle" dominant-baseline="middle">Hypothesize</text>
  <rect x="90.0" y="306.0" rx="6" ry="6" width="160.0" height="48.0" fill="#ffffff" stroke="#333333"/>
  <text x="170.0" y="330.0" font-family="sans-serif" font-size="12" text-anchor="middle" dominant-baseline="middle">Decide</text>
  <rect x="90.0" y="424.0" rx="6" ry="6" width="160.0" height="48.0" fill="#ffffff" stroke="#333333"/>
  <text x="170.0" y="448.0" font-family="sans-serif" font-size="12" text-anchor="middle" dominant-baseline="middle">Plan</text>
  <rect x="90.0" y="542.0" rx="6" ry="6" width="160.0" height="48.0" fill="#ffffff" stroke="#333333"/>
  <text x="170.0" y="566.0" font-family="sans-serif" font-size="12" text-anchor="middle" dominant-baseline="middle">Act</text>
  <rect x="90.0" y="660.0" rx="6" ry="6" width="160.0" height="48.0" fill="#ffffff" stroke="#333333"/>
  <text x="170.0" y="684.0" font-family="sans-serif" font-size="12" text-anchor="middle" dominant-baseline="middle">Reflect</text>
  <rect x="90.0" y="778.0" rx="6" ry="6" width="160.0" height="48.0" fill="#ffffff" stroke="#333333"/>
  <text x="170.0" y="802.0" font-family="sans-serif" font-size="12" text-anchor="middle" dominant-baseline="middle">Improve</text>
  <rect x="90.0" y="896.0" rx="6" ry="6" width="160.0" height="48.0" fill="#ffffff" stroke="#333333"/>
  <text x="170.0" y="920.0" font-family="sans-serif" font-size="12" text-anchor="middle" dominant-baseline="middle">Repeat</text>
  <g id="legend">
    <rect x="20.0" y="198.0" width="520" height="100" fill="#fafafa" stroke="#bbb"/>
  <rect x="30.0" y="218.0" rx="15.0" ry="15.0" width="80.0" height="30.0" fill="#e6ffe6" stroke="#2e7d32"/>
    <text x="120.0" y="233.0" font-family="sans-serif" font-size="12">Start/End</text>
  <polygon points="270.0,218.0 310.0,233.0 270.0,248.0 230.0,233.0" fill="#fff9c4" stroke="#f9a825"/>
    <text x="320.0" y="233.0" font-family="sans-serif" font-size="12">Decision</text>
  <rect x="430.0" y="218.0" rx="6" ry="6" width="80.0" height="30.0" fill="#ffffff" stroke="#333333"/>
    <text x="520.0" y="233.0" font-family="sans-serif" font-size="12">Process</text>
  <rect x="30.0" y="258.0" width="80.0" height="30.0" fill="#e3f2fd" stroke="#1565c0"/>
  <ellipse cx="70.0" cy="258.0" rx="40.0" ry="6" fill="#e3f2fd" stroke="#1565c0"/>
  <ellipse cx="70.0" cy="288.0" rx="40.0" ry="6" fill="#e3f2fd" stroke="#1565c0"/>
    <text x="120.0" y="273.0" font-family="sans-serif" font-size="12">Data/Queue</text>
  <rect x="230.0" y="258.0" rx="6" ry="6" width="80.0" height="30.0" fill="#ffebee" stroke="#c62828"/>
    <text x="320.0" y="273.0" font-family="sans-serif" font-size="12">Error</text>
  </g>
</svg>
